<svg width="48" height="48" xmlns="http://www.w3.org/2000/svg">

 <g>
  <title>background</title>
  <rect fill="none" id="canvas_background" height="402" width="582" y="-1" x="-1"/>
 </g>
 <g>
  <title>Layer 1</title>
  <path id="svg_2" fill="none" stroke="#231F20" stroke-miterlimit="10" d="m37.054,9.945c0.55,0 1,0.45 1,1l0,28.67c0,0.55 -0.45,1 -1,1l-25.3,0c-0.55,0 -1,-0.45 -1,-1l0,-32.62c0,-0.55 0.45,-1 1,-1l21.21,0c0.55,0 1,0.45 1,1l0,1.95c0,0.55 0.45,1 1,1l2.09,0z"/>
  <path id="svg_12" fill="#231F20" d="m38.123,9.894c0.33,0.32 0.444,0.738 0.256,0.933l0,0c-0.188,0.194 -0.609,0.092 -0.939,-0.228l-3.925,-3.807c-0.329,-0.32 -0.444,-0.738 -0.256,-0.932l0,0c0.188,-0.195 0.61,-0.093 0.939,0.227l3.925,3.807z"/>
 </g>
</svg>